<svg width="24" height="24" viewBox="0 0 24 24" fill="none" xmlns="http://www.w3.org/2000/svg">
<path fill-rule="evenodd" clip-rule="evenodd" d="M12.0002 2.75C8.25617 2.75 5.2253 5.77442 5.2253 9.5V9.50006C5.2252 10.5825 5.17182 11.7967 4.40628 12.9242L4.40388 12.9277L4.40387 12.9277C4.278 13.1109 4.16751 13.261 4.06337 13.4025C3.92465 13.591 3.79718 13.7642 3.65962 13.9797C3.44638 14.3138 3.31413 14.6034 3.27152 14.8827C3.13356 15.7871 3.71037 16.5026 4.71926 16.9205C8.99823 18.6932 15.0021 18.6932 19.2811 16.9206C20.29 16.5026 20.8668 15.7871 20.7288 14.8827L21.4702 14.7696L20.7288 14.8827C20.6862 14.6034 20.554 14.3138 20.3407 13.9797C20.2032 13.7642 20.0757 13.591 19.937 13.4025C19.8328 13.261 19.7223 13.1109 19.5965 12.9277L19.5941 12.9242C18.8285 11.7967 18.7751 10.5825 18.775 9.50006V9.5C18.775 5.77442 15.7442 2.75 12.0002 2.75ZM3.7253 9.49994C3.72533 4.94128 7.43245 1.25 12.0002 1.25C16.5679 1.25 20.275 4.94131 20.275 9.5H19.525H20.275C20.2751 10.5604 20.3463 11.3606 20.8339 12.08C20.9017 12.1785 20.9917 12.302 21.09 12.4368C21.2607 12.6711 21.4566 12.9399 21.6052 13.1727C21.8674 13.5836 22.1236 14.0791 22.2117 14.6565C22.499 16.5402 21.1744 17.7598 19.8552 18.3063C15.2086 20.2312 8.79173 20.2312 4.14519 18.3063C2.82596 17.7598 1.50132 16.5402 1.78867 14.6565C1.87675 14.0791 2.13295 13.5836 2.39519 13.1727C2.54377 12.9399 2.73965 12.6711 2.91038 12.4368C3.00869 12.3019 3.09865 12.1785 3.16646 12.0799C3.65408 11.3606 3.7252 10.5603 3.7253 9.5" fill="#DB0011"/>
<path fill-rule="evenodd" clip-rule="evenodd" d="M7.80756 18.2751C8.20787 18.1687 8.61864 18.407 8.72503 18.8073C9.09457 20.1978 10.4094 21.2499 12.0002 21.2499C13.591 21.2499 14.9058 20.1978 15.2753 18.8073C15.3817 18.407 15.7925 18.1687 16.1928 18.2751C16.5931 18.3815 16.8314 18.7923 16.725 19.1926C16.1776 21.2525 14.2584 22.7499 12.0002 22.7499C9.74201 22.7499 7.82278 21.2525 7.27534 19.1926C7.16896 18.7923 7.40724 18.3815 7.80756 18.2751Z" fill="#DB0011"/>
</svg>